# xmcd
#
# Track frame offsets:
#	150
#	15079
#	30303
#	45755
#	61278
#	77253
#	92704
#	108228
#	123003
#	139054
#	155853
#	170179
#	187055
#	202355
#	218178
#	233480
#	250503
#
# Disc length: 3550 seconds
#
# Revision: 0
# Processed by: cddbd v1.5.2PL0 Copyright (c) Steve Scherf et al.
# Submitted via: EasyCDDAExtractor 16.0.8.2
#
DISCID=d30ddc11
DTITLE=Τσαουσάκης Πρόδρομος - Αρχ. Ελλ. Δ.-Τραγ. ρεμπ. 10-Τσαουσάκης Πρ. 1
DYEAR=1999
DGENRE=Ρεμπέτικη
TTITLE0=Τσαουσάκης Πρόδρομος - Κάποια μέρα [1950,ΑΣακελ/ιου-ΧΓιαννακό/λου-ΜΣου
TTITLE0=γιούλ]
TTITLE1=Τσαουσάκης Πρόδρομος - Τα μαύρα ρούχα [1952, Π. Τσαουσάκη]
TTITLE2=Τσαουσάκης Πρόδρομος-Μπέλλα Άν.-Τατασσόπουλος - Το μπουζούκι μόνο ξέρε
TTITLE2=ι[52,Π.Τσαουσάκη]
TTITLE3=Τσαουσάκης Πρόδρομος - Σπάστα γκρέμιστα κυρά μου [1953,ΝΡούτσου-ΙΤατασ
TTITLE3=/λου]
TTITLE4=Τσαουσάκης Πρόδρομος - Είναι βαρύς ο πόνος μου [1953, Ν. Ρούτσου-Ι. Τα
TTITLE4=τασ/λου]
TTITLE5=Τσαουσάκης Πρόδρομος-Τσιτσάνης Βασίλης - Είσαι γόησσα [1951, Ι. Παπαδό
TTITLE5=πουλου]
TTITLE6=Τσαουσάκης Πρόδρομος-Λουζά Στέλλα - Άγνωστη ξένη [1951, Π. Τσαουσάκη]
TTITLE7=Τσαουσάκης Πρόδρομος-ΤατασσόποουλοςΙ-ΓρίλληΜ. - Χλωμή τσιγγάνα [1953, 
TTITLE7=Π. Τσαουσάκη]
TTITLE8=Τσαουσάκης Πρόδρομος-Στάμου Ρ.-Καλλέργης Ν. - Ζητάς να χωριστούμε [195
TTITLE8=3, Α. Βενιέρη]
TTITLE9=Τσαουσάκης Πρόδρομος - Γλυκοχαράζει ο αυγερινός [1953,Ν. Ρούτσου-Ι. Τα
TTITLE9=τασ/λου]
TTITLE10=Τσαουσάκης Πρόδρομος - Η αλεπού [1953, Π. Τσαουσάκη]
TTITLE11=Τσαουσάκης Πρόδρομος-Γρίλλη Μαρία - Απόψε αγάπη μου παληά [1953, Π. Τ
TTITLE11=σαουσάκη]
TTITLE12=Τσαουσάκης Πρόδρομος-Στάμου Ρ.-Καλλέργης Ν. - Θέλω βαρειά να κοιμηθώ 
TTITLE12=[1952,Ι.Κυριαζή]
TTITLE13=Τσαουσάκης Πρόδρομος - Σκλάβα δική σου δεν θα γίνω εγώ ποτέ [1952, Χ.
TTITLE13=Μίγκου]
TTITLE14=Τσαουσάκης Πρόδρομος-Στάμου Ρένα - Ο πόνος μιάς κοπέλλας [1952, Χ. Μί
TTITLE14=γκου]
TTITLE15=Τσαουσάκης Πρόδρομος-Γρίλλη Μαρία - Σαν σήμερα-σαν σήμερα [1953, Γ. Ζ
TTITLE15=αμπέτα]
TTITLE16=Τσαουσάκης Πρόδρομος-Γρίλλη Μαρία - Μανούλες που έχετε παιδιά [1954, 
TTITLE16=Ι. Κυριαζή]
EXTD=
EXTT0=
EXTT1=
EXTT2=
EXTT3=
EXTT4=
EXTT5=
EXTT6=
EXTT7=
EXTT8=
EXTT9=
EXTT10=
EXTT11=
EXTT12=
EXTT13=
EXTT14=
EXTT15=
EXTT16=
PLAYORDER=
